<mxfile host="app.diagrams.net" modified="2023-08-22T17:05:39.328Z" agent="Mozilla/5.0 (Windows NT 10.0; Win64; x64) AppleWebKit/537.36 (KHTML, like Gecko) Chrome/116.0.0.0 Safari/537.36" etag="gZYiMHC80PGGGzeem8vP" version="21.6.8" type="github">
  <diagram name="Page-1" id="zFJyfzALChtRXlv1Sgy3">
    <mxGraphModel dx="1050" dy="623" grid="1" gridSize="10" guides="1" tooltips="1" connect="1" arrows="1" fold="1" page="1" pageScale="1" pageWidth="850" pageHeight="1100" math="0" shadow="0">
      <root>
        <mxCell id="0" />
        <mxCell id="1" parent="0" />
        <mxCell id="eSUzLrRJqdItIHo75qTO-13" style="edgeStyle=orthogonalEdgeStyle;rounded=0;orthogonalLoop=1;jettySize=auto;html=1;exitX=0.5;exitY=1;exitDx=0;exitDy=0;entryX=0.5;entryY=0;entryDx=0;entryDy=0;" edge="1" parent="1" source="eSUzLrRJqdItIHo75qTO-1" target="eSUzLrRJqdItIHo75qTO-3">
          <mxGeometry relative="1" as="geometry" />
        </mxCell>
        <mxCell id="eSUzLrRJqdItIHo75qTO-1" value="Start" style="ellipse;whiteSpace=wrap;html=1;" vertex="1" parent="1">
          <mxGeometry x="150" y="110" width="80" height="50" as="geometry" />
        </mxCell>
        <mxCell id="eSUzLrRJqdItIHo75qTO-2" value="End" style="ellipse;whiteSpace=wrap;html=1;" vertex="1" parent="1">
          <mxGeometry x="390" y="380" width="80" height="50" as="geometry" />
        </mxCell>
        <mxCell id="eSUzLrRJqdItIHo75qTO-14" style="edgeStyle=orthogonalEdgeStyle;rounded=0;orthogonalLoop=1;jettySize=auto;html=1;exitX=0.5;exitY=1;exitDx=0;exitDy=0;entryX=0.5;entryY=0;entryDx=0;entryDy=0;" edge="1" parent="1" source="eSUzLrRJqdItIHo75qTO-3" target="eSUzLrRJqdItIHo75qTO-4">
          <mxGeometry relative="1" as="geometry" />
        </mxCell>
        <mxCell id="eSUzLrRJqdItIHo75qTO-3" value="Salesperson creates a Sales Order" style="rounded=1;whiteSpace=wrap;html=1;" vertex="1" parent="1">
          <mxGeometry x="100" y="190" width="180" height="60" as="geometry" />
        </mxCell>
        <mxCell id="eSUzLrRJqdItIHo75qTO-15" style="edgeStyle=orthogonalEdgeStyle;rounded=0;orthogonalLoop=1;jettySize=auto;html=1;exitX=0.5;exitY=1;exitDx=0;exitDy=0;entryX=0.5;entryY=0;entryDx=0;entryDy=0;" edge="1" parent="1" source="eSUzLrRJqdItIHo75qTO-4" target="eSUzLrRJqdItIHo75qTO-9">
          <mxGeometry relative="1" as="geometry" />
        </mxCell>
        <mxCell id="eSUzLrRJqdItIHo75qTO-16" style="edgeStyle=orthogonalEdgeStyle;rounded=0;orthogonalLoop=1;jettySize=auto;html=1;exitX=1;exitY=0.5;exitDx=0;exitDy=0;entryX=0;entryY=0.5;entryDx=0;entryDy=0;" edge="1" parent="1" source="eSUzLrRJqdItIHo75qTO-4" target="eSUzLrRJqdItIHo75qTO-10">
          <mxGeometry relative="1" as="geometry">
            <Array as="points">
              <mxPoint x="300" y="305" />
              <mxPoint x="300" y="140" />
            </Array>
          </mxGeometry>
        </mxCell>
        <mxCell id="eSUzLrRJqdItIHo75qTO-4" value="" style="rhombus;whiteSpace=wrap;html=1;" vertex="1" parent="1">
          <mxGeometry x="155" y="280" width="70" height="50" as="geometry" />
        </mxCell>
        <mxCell id="eSUzLrRJqdItIHo75qTO-5" value="Business Scenario&lt;br&gt;Credit Limit Flow" style="text;whiteSpace=wrap;html=1;align=center;fontStyle=1" vertex="1" parent="1">
          <mxGeometry x="260" y="50" width="120" height="40" as="geometry" />
        </mxCell>
        <mxCell id="eSUzLrRJqdItIHo75qTO-7" value="&lt;span style=&quot;color: rgb(0, 0, 0); font-family: Helvetica; font-size: 9px; font-style: normal; font-variant-ligatures: normal; font-variant-caps: normal; font-weight: 400; letter-spacing: normal; orphans: 2; text-indent: 0px; text-transform: none; widows: 2; word-spacing: 0px; -webkit-text-stroke-width: 0px; background-color: rgb(251, 251, 251); text-decoration-thickness: initial; text-decoration-style: initial; text-decoration-color: initial; float: none; display: inline !important;&quot;&gt;Does the total credit exceed the customer&#39;s credit limit?&lt;/span&gt;" style="text;whiteSpace=wrap;html=1;align=center;fontSize=9;" vertex="1" parent="1">
          <mxGeometry x="55" y="280" width="100" height="60" as="geometry" />
        </mxCell>
        <mxCell id="eSUzLrRJqdItIHo75qTO-9" value="Proceed to validate the Sales Order" style="rounded=1;whiteSpace=wrap;html=1;" vertex="1" parent="1">
          <mxGeometry x="100" y="360" width="180" height="60" as="geometry" />
        </mxCell>
        <mxCell id="eSUzLrRJqdItIHo75qTO-17" style="edgeStyle=orthogonalEdgeStyle;rounded=0;orthogonalLoop=1;jettySize=auto;html=1;exitX=0.5;exitY=1;exitDx=0;exitDy=0;entryX=0.5;entryY=0;entryDx=0;entryDy=0;" edge="1" parent="1" source="eSUzLrRJqdItIHo75qTO-10" target="eSUzLrRJqdItIHo75qTO-11">
          <mxGeometry relative="1" as="geometry" />
        </mxCell>
        <mxCell id="eSUzLrRJqdItIHo75qTO-10" value="System blocks the validation of the Sales Order" style="rounded=1;whiteSpace=wrap;html=1;" vertex="1" parent="1">
          <mxGeometry x="340" y="110" width="180" height="60" as="geometry" />
        </mxCell>
        <mxCell id="eSUzLrRJqdItIHo75qTO-18" style="edgeStyle=orthogonalEdgeStyle;rounded=0;orthogonalLoop=1;jettySize=auto;html=1;exitX=0.5;exitY=1;exitDx=0;exitDy=0;entryX=0.5;entryY=0;entryDx=0;entryDy=0;" edge="1" parent="1" source="eSUzLrRJqdItIHo75qTO-11" target="eSUzLrRJqdItIHo75qTO-12">
          <mxGeometry relative="1" as="geometry" />
        </mxCell>
        <mxCell id="eSUzLrRJqdItIHo75qTO-11" value="Sales Manager gets &lt;br&gt;a notification" style="rounded=1;whiteSpace=wrap;html=1;" vertex="1" parent="1">
          <mxGeometry x="340" y="200" width="180" height="60" as="geometry" />
        </mxCell>
        <mxCell id="eSUzLrRJqdItIHo75qTO-19" style="edgeStyle=orthogonalEdgeStyle;rounded=0;orthogonalLoop=1;jettySize=auto;html=1;exitX=0.5;exitY=1;exitDx=0;exitDy=0;entryX=0.5;entryY=0;entryDx=0;entryDy=0;" edge="1" parent="1" source="eSUzLrRJqdItIHo75qTO-12" target="eSUzLrRJqdItIHo75qTO-2">
          <mxGeometry relative="1" as="geometry" />
        </mxCell>
        <mxCell id="eSUzLrRJqdItIHo75qTO-12" value="Sales Manager can either override the block or ask for modifications in the Sales Order" style="rounded=1;whiteSpace=wrap;html=1;" vertex="1" parent="1">
          <mxGeometry x="340" y="290" width="180" height="60" as="geometry" />
        </mxCell>
        <mxCell id="eSUzLrRJqdItIHo75qTO-20" style="edgeStyle=orthogonalEdgeStyle;rounded=0;orthogonalLoop=1;jettySize=auto;html=1;exitX=0.5;exitY=1;exitDx=0;exitDy=0;entryX=0.5;entryY=0;entryDx=0;entryDy=0;" edge="1" parent="1" source="eSUzLrRJqdItIHo75qTO-21" target="eSUzLrRJqdItIHo75qTO-24">
          <mxGeometry relative="1" as="geometry" />
        </mxCell>
        <mxCell id="eSUzLrRJqdItIHo75qTO-21" value="Start" style="ellipse;whiteSpace=wrap;html=1;" vertex="1" parent="1">
          <mxGeometry x="150" y="560" width="80" height="50" as="geometry" />
        </mxCell>
        <mxCell id="eSUzLrRJqdItIHo75qTO-22" value="End" style="ellipse;whiteSpace=wrap;html=1;" vertex="1" parent="1">
          <mxGeometry x="390" y="830" width="80" height="50" as="geometry" />
        </mxCell>
        <mxCell id="eSUzLrRJqdItIHo75qTO-23" style="edgeStyle=orthogonalEdgeStyle;rounded=0;orthogonalLoop=1;jettySize=auto;html=1;exitX=0.5;exitY=1;exitDx=0;exitDy=0;entryX=0.5;entryY=0;entryDx=0;entryDy=0;" edge="1" parent="1" source="eSUzLrRJqdItIHo75qTO-24" target="eSUzLrRJqdItIHo75qTO-27">
          <mxGeometry relative="1" as="geometry" />
        </mxCell>
        <mxCell id="eSUzLrRJqdItIHo75qTO-24" value="Salesperson creates a Sales Order" style="rounded=1;whiteSpace=wrap;html=1;" vertex="1" parent="1">
          <mxGeometry x="100" y="640" width="180" height="60" as="geometry" />
        </mxCell>
        <mxCell id="eSUzLrRJqdItIHo75qTO-25" style="edgeStyle=orthogonalEdgeStyle;rounded=0;orthogonalLoop=1;jettySize=auto;html=1;exitX=0.5;exitY=1;exitDx=0;exitDy=0;entryX=0.5;entryY=0;entryDx=0;entryDy=0;" edge="1" parent="1" source="eSUzLrRJqdItIHo75qTO-27" target="eSUzLrRJqdItIHo75qTO-30">
          <mxGeometry relative="1" as="geometry" />
        </mxCell>
        <mxCell id="eSUzLrRJqdItIHo75qTO-26" style="edgeStyle=orthogonalEdgeStyle;rounded=0;orthogonalLoop=1;jettySize=auto;html=1;exitX=1;exitY=0.5;exitDx=0;exitDy=0;entryX=0;entryY=0.5;entryDx=0;entryDy=0;" edge="1" parent="1" source="eSUzLrRJqdItIHo75qTO-27" target="eSUzLrRJqdItIHo75qTO-32">
          <mxGeometry relative="1" as="geometry">
            <Array as="points">
              <mxPoint x="300" y="755" />
              <mxPoint x="300" y="590" />
            </Array>
          </mxGeometry>
        </mxCell>
        <mxCell id="eSUzLrRJqdItIHo75qTO-27" value="" style="rhombus;whiteSpace=wrap;html=1;" vertex="1" parent="1">
          <mxGeometry x="155" y="730" width="70" height="50" as="geometry" />
        </mxCell>
        <mxCell id="eSUzLrRJqdItIHo75qTO-28" value="Business Scenario&lt;br&gt;Overdue Invoices Flow" style="text;whiteSpace=wrap;html=1;align=center;fontStyle=1" vertex="1" parent="1">
          <mxGeometry x="252.5" y="490" width="135" height="40" as="geometry" />
        </mxCell>
        <mxCell id="eSUzLrRJqdItIHo75qTO-29" value="&lt;span style=&quot;color: rgb(0, 0, 0); font-family: Helvetica; font-size: 9px; font-style: normal; font-variant-ligatures: normal; font-variant-caps: normal; font-weight: 400; letter-spacing: normal; orphans: 2; text-indent: 0px; text-transform: none; widows: 2; word-spacing: 0px; -webkit-text-stroke-width: 0px; background-color: rgb(251, 251, 251); text-decoration-thickness: initial; text-decoration-style: initial; text-decoration-color: initial; float: none; display: inline !important;&quot;&gt;Does the customer have any overdue invoices.&lt;/span&gt;" style="text;whiteSpace=wrap;html=1;align=center;fontSize=9;" vertex="1" parent="1">
          <mxGeometry x="50" y="738" width="100" height="30" as="geometry" />
        </mxCell>
        <mxCell id="eSUzLrRJqdItIHo75qTO-30" value="Proceed to validate the Sales Order" style="rounded=1;whiteSpace=wrap;html=1;" vertex="1" parent="1">
          <mxGeometry x="100" y="810" width="180" height="60" as="geometry" />
        </mxCell>
        <mxCell id="eSUzLrRJqdItIHo75qTO-31" style="edgeStyle=orthogonalEdgeStyle;rounded=0;orthogonalLoop=1;jettySize=auto;html=1;exitX=0.5;exitY=1;exitDx=0;exitDy=0;entryX=0.5;entryY=0;entryDx=0;entryDy=0;" edge="1" parent="1" source="eSUzLrRJqdItIHo75qTO-32" target="eSUzLrRJqdItIHo75qTO-34">
          <mxGeometry relative="1" as="geometry" />
        </mxCell>
        <mxCell id="eSUzLrRJqdItIHo75qTO-32" value="System blocks the validation of the Sales Order" style="rounded=1;whiteSpace=wrap;html=1;" vertex="1" parent="1">
          <mxGeometry x="340" y="560" width="180" height="60" as="geometry" />
        </mxCell>
        <mxCell id="eSUzLrRJqdItIHo75qTO-33" style="edgeStyle=orthogonalEdgeStyle;rounded=0;orthogonalLoop=1;jettySize=auto;html=1;exitX=0.5;exitY=1;exitDx=0;exitDy=0;entryX=0.5;entryY=0;entryDx=0;entryDy=0;" edge="1" parent="1" source="eSUzLrRJqdItIHo75qTO-34" target="eSUzLrRJqdItIHo75qTO-36">
          <mxGeometry relative="1" as="geometry" />
        </mxCell>
        <mxCell id="eSUzLrRJqdItIHo75qTO-34" value="Sales Manager gets &lt;br&gt;a notification" style="rounded=1;whiteSpace=wrap;html=1;" vertex="1" parent="1">
          <mxGeometry x="340" y="650" width="180" height="60" as="geometry" />
        </mxCell>
        <mxCell id="eSUzLrRJqdItIHo75qTO-35" style="edgeStyle=orthogonalEdgeStyle;rounded=0;orthogonalLoop=1;jettySize=auto;html=1;exitX=0.5;exitY=1;exitDx=0;exitDy=0;entryX=0.5;entryY=0;entryDx=0;entryDy=0;" edge="1" parent="1" source="eSUzLrRJqdItIHo75qTO-36" target="eSUzLrRJqdItIHo75qTO-22">
          <mxGeometry relative="1" as="geometry" />
        </mxCell>
        <mxCell id="eSUzLrRJqdItIHo75qTO-36" value="Sales Manager can either override the block or ask the customer to clear the overdue invoices" style="rounded=1;whiteSpace=wrap;html=1;" vertex="1" parent="1">
          <mxGeometry x="340" y="740" width="180" height="60" as="geometry" />
        </mxCell>
        <mxCell id="eSUzLrRJqdItIHo75qTO-37" style="edgeStyle=orthogonalEdgeStyle;rounded=0;orthogonalLoop=1;jettySize=auto;html=1;exitX=0.5;exitY=1;exitDx=0;exitDy=0;entryX=0.5;entryY=0;entryDx=0;entryDy=0;" edge="1" parent="1" source="eSUzLrRJqdItIHo75qTO-38" target="eSUzLrRJqdItIHo75qTO-41">
          <mxGeometry relative="1" as="geometry" />
        </mxCell>
        <mxCell id="eSUzLrRJqdItIHo75qTO-38" value="Start" style="ellipse;whiteSpace=wrap;html=1;" vertex="1" parent="1">
          <mxGeometry x="155" y="990" width="80" height="50" as="geometry" />
        </mxCell>
        <mxCell id="eSUzLrRJqdItIHo75qTO-39" value="End" style="ellipse;whiteSpace=wrap;html=1;" vertex="1" parent="1">
          <mxGeometry x="395" y="1260" width="80" height="50" as="geometry" />
        </mxCell>
        <mxCell id="eSUzLrRJqdItIHo75qTO-56" style="edgeStyle=orthogonalEdgeStyle;rounded=0;orthogonalLoop=1;jettySize=auto;html=1;exitX=0.5;exitY=1;exitDx=0;exitDy=0;entryX=0.5;entryY=0;entryDx=0;entryDy=0;" edge="1" parent="1" source="eSUzLrRJqdItIHo75qTO-41" target="eSUzLrRJqdItIHo75qTO-47">
          <mxGeometry relative="1" as="geometry" />
        </mxCell>
        <mxCell id="eSUzLrRJqdItIHo75qTO-41" value="Salesperson selects a customer and adds products to the Sales Order." style="rounded=1;whiteSpace=wrap;html=1;" vertex="1" parent="1">
          <mxGeometry x="105" y="1070" width="180" height="60" as="geometry" />
        </mxCell>
        <mxCell id="eSUzLrRJqdItIHo75qTO-45" value="Business Scenario&lt;br&gt;Multi-level Discount Flow" style="text;whiteSpace=wrap;html=1;align=center;fontStyle=1" vertex="1" parent="1">
          <mxGeometry x="242.5" y="930" width="155" height="40" as="geometry" />
        </mxCell>
        <mxCell id="eSUzLrRJqdItIHo75qTO-57" style="edgeStyle=orthogonalEdgeStyle;rounded=0;orthogonalLoop=1;jettySize=auto;html=1;exitX=0.5;exitY=1;exitDx=0;exitDy=0;entryX=0.5;entryY=0;entryDx=0;entryDy=0;" edge="1" parent="1" source="eSUzLrRJqdItIHo75qTO-47" target="eSUzLrRJqdItIHo75qTO-54">
          <mxGeometry relative="1" as="geometry" />
        </mxCell>
        <mxCell id="eSUzLrRJqdItIHo75qTO-47" value="System automatically applies the first-level discount based on the customer type" style="rounded=1;whiteSpace=wrap;html=1;" vertex="1" parent="1">
          <mxGeometry x="105" y="1160" width="180" height="60" as="geometry" />
        </mxCell>
        <mxCell id="eSUzLrRJqdItIHo75qTO-48" style="edgeStyle=orthogonalEdgeStyle;rounded=0;orthogonalLoop=1;jettySize=auto;html=1;exitX=0.5;exitY=1;exitDx=0;exitDy=0;entryX=0.5;entryY=0;entryDx=0;entryDy=0;" edge="1" parent="1" source="eSUzLrRJqdItIHo75qTO-49" target="eSUzLrRJqdItIHo75qTO-51">
          <mxGeometry relative="1" as="geometry" />
        </mxCell>
        <mxCell id="eSUzLrRJqdItIHo75qTO-49" value="Sales Supervisor gets a notification for approval of the third-level discount" style="rounded=1;whiteSpace=wrap;html=1;" vertex="1" parent="1">
          <mxGeometry x="345" y="990" width="180" height="60" as="geometry" />
        </mxCell>
        <mxCell id="eSUzLrRJqdItIHo75qTO-50" style="edgeStyle=orthogonalEdgeStyle;rounded=0;orthogonalLoop=1;jettySize=auto;html=1;exitX=0.5;exitY=1;exitDx=0;exitDy=0;entryX=0.5;entryY=0;entryDx=0;entryDy=0;" edge="1" parent="1" source="eSUzLrRJqdItIHo75qTO-51" target="eSUzLrRJqdItIHo75qTO-53">
          <mxGeometry relative="1" as="geometry" />
        </mxCell>
        <mxCell id="eSUzLrRJqdItIHo75qTO-51" value="Once approved, the system calculates the total discount in the &quot;1+2+3&quot; format and displays it on the Sales Order" style="rounded=1;whiteSpace=wrap;html=1;" vertex="1" parent="1">
          <mxGeometry x="345" y="1080" width="180" height="60" as="geometry" />
        </mxCell>
        <mxCell id="eSUzLrRJqdItIHo75qTO-52" style="edgeStyle=orthogonalEdgeStyle;rounded=0;orthogonalLoop=1;jettySize=auto;html=1;exitX=0.5;exitY=1;exitDx=0;exitDy=0;entryX=0.5;entryY=0;entryDx=0;entryDy=0;" edge="1" parent="1" source="eSUzLrRJqdItIHo75qTO-53" target="eSUzLrRJqdItIHo75qTO-39">
          <mxGeometry relative="1" as="geometry" />
        </mxCell>
        <mxCell id="eSUzLrRJqdItIHo75qTO-53" value="The Sales Order is then validated, and the discounts are reflected in the invoice and journal entries" style="rounded=1;whiteSpace=wrap;html=1;" vertex="1" parent="1">
          <mxGeometry x="345" y="1170" width="180" height="60" as="geometry" />
        </mxCell>
        <mxCell id="eSUzLrRJqdItIHo75qTO-58" style="edgeStyle=orthogonalEdgeStyle;rounded=0;orthogonalLoop=1;jettySize=auto;html=1;exitX=0.5;exitY=1;exitDx=0;exitDy=0;entryX=0.5;entryY=0;entryDx=0;entryDy=0;" edge="1" parent="1" source="eSUzLrRJqdItIHo75qTO-54" target="eSUzLrRJqdItIHo75qTO-55">
          <mxGeometry relative="1" as="geometry" />
        </mxCell>
        <mxCell id="eSUzLrRJqdItIHo75qTO-54" value="System checks for any second-level discounts on the selected products or product categories and applies them." style="rounded=1;whiteSpace=wrap;html=1;" vertex="1" parent="1">
          <mxGeometry x="105" y="1250" width="180" height="60" as="geometry" />
        </mxCell>
        <mxCell id="eSUzLrRJqdItIHo75qTO-59" style="edgeStyle=orthogonalEdgeStyle;rounded=0;orthogonalLoop=1;jettySize=auto;html=1;exitX=1;exitY=0.5;exitDx=0;exitDy=0;entryX=0;entryY=0.5;entryDx=0;entryDy=0;" edge="1" parent="1" source="eSUzLrRJqdItIHo75qTO-55" target="eSUzLrRJqdItIHo75qTO-49">
          <mxGeometry relative="1" as="geometry" />
        </mxCell>
        <mxCell id="eSUzLrRJqdItIHo75qTO-55" value="Salesperson can manually input a third-level discount on the sales order line" style="rounded=1;whiteSpace=wrap;html=1;" vertex="1" parent="1">
          <mxGeometry x="105" y="1340" width="180" height="60" as="geometry" />
        </mxCell>
      </root>
    </mxGraphModel>
  </diagram>
</mxfile>
